# AST/ASF file generated using VICON BodyLanguage
# -----------------------------------------------
:version 1.10
:name VICON
:units
  mass 1.0
  length 0.45
  angle deg
:documentation
   .ast/.asf automatically generated from VICON data using
   VICON BodyBuilder and BodyLanguage model FoxedUp or BRILLIANT.MOD
:root
   order TX TY TZ RX RY RZ
   axis XYZ
   position 0 0 0  
   orientation 0 0 0 
:bonedata
  begin
     id 1 
     name lhipjoint
     direction 0.606768 -0.715223 0.346827 
     length 2.41543 
     axis 0 0 0  XYZ
  end
  begin
     id 2 
     name lfemur
     direction 0.34202 -0.939693 0  
     length 7.2778  
     axis 0 0 20  XYZ
    dof rx ry rz
    limits (-160.0 20.0)
           (-70.0 70.0)
           (-60.0 70.0)
  end
  begin
     id 3 
     name ltibia
     direction 0.34202 -0.939693 0   
     length 7.61811   
     axis 0 0 20   XYZ
    dof rx
    limits (-10.0 170.0)
  end
  begin
     id 4 
     name lfoot
     direction 0.0823924 -0.226371 0.97055   
     length 2.33618   
     axis -90 7.62852e-016 20   XYZ
    dof rx rz
    limits (-45.0 90.0)
           (-70.0 20.0)
  end
  begin
     id 5 
     name ltoes
     direction 1.53554e-011 -4.21934e-011 1   
     length 1.17015   
     axis -90 7.62852e-016 20   XYZ
    dof rx
    limits (-90.0 20.0)
  end
  begin
     id 6 
     name rhipjoint
     direction -0.6077 -0.714582 0.346516   
     length 2.4176  
     axis 0 0 0  XYZ 
  end
  begin
     id 7 
     name rfemur
     direction -0.34202 -0.939693 0   
     length 7.28127   
     axis 0 0 -20   XYZ
    dof rx ry rz
    limits (-160.0 20.0)
           (-70.0 70.0)
           (-70.0 60.0)
  end
  begin
     id 8 
     name rtibia
     direction -0.34202 -0.939693 0   
     length 7.77648   
     axis 0 0 -20   XYZ
    dof rx
    limits (-10.0 170.0)
 end
 begin
     id 9 
     name rfoot
     direction -0.0809463 -0.222398 0.97159   
     length 2.37533  
     axis -90 -7.62852e-016 -20   XYZ
    dof rx rz
    limits (-45.0 90.0)
           (-20.0 70.0)
  end
  begin
     id 10 
     name rtoes
     direction -1.53568e-011 -4.21714e-011 1   
     length 1.18972   
     axis -90 -7.62852e-016 -20   XYZ
    dof rx
    limits (-90.0 20.0)
  end
  begin
     id 11 
     name lowerback
     direction 0.010968 0.991932 -0.126297   
     length 2.21698   
     axis 0 0 0   XYZ
    dof rx ry rz
    limits (-20.0 45.0)
           (-30.0 30.0)
           (-30.0 30.0)
  end
  begin
     id 12 
     name upperback
     direction 0.0167007 0.997503 -0.0686276   
     length 2.22371   
     axis 0 0 0   XYZ
    dof rx ry rz
    limits (-20.0 45.0)
           (-30.0 30.0)
           (-30.0 30.0)
  end
  begin
     id 13 
     name thorax
     direction 0.0111721 0.999885 -0.0102878   
     length 2.25242   
     axis 0 0 0   XYZ
    dof rx ry rz
    limits (-20.0 45.0)
           (-30.0 30.0)
           (-30.0 30.0)
  end
  begin
     id 14 
     name lowerneck
     direction -0.0120265 0.990428 0.137508   
     length 1.57674   
     axis 0 0 0   XYZ
    dof rx ry rz
    limits (-20.0 45.0)
           (-30.0 30.0)
           (-30.0 30.0)
  end
  begin
     id 15 
     name upperneck
     direction 0.0175669 0.998907 0.0433089   
     length 1.5618   
     axis 0 0 0   XYZ
    dof rx ry rz
    limits (-20.0 45.0)
           (-30.0 30.0)
           (-30.0 30.0)
  end
  begin
     id 16
     name head
     direction 0.00754609 0.99997 0.00185367  
     length 1.60579  
     axis 0 0 0   XYZ
    dof rx ry rz
    limits (-20.0 45.0)
           (-30.0 30.0)
           (-30.0 30.0)
  end
  begin
     id 17 
     name lclavicle
     direction 0.885866 0.429166 -0.176231  
     length 3.44967  
     axis 0 0 0   XYZ
    dof ry rz
    limits (-20.0 10.0)
           (0.0 20.0)
  end
  begin
     id 18 
     name lhumerus
     direction 1 -4.48973e-011 -1.90255e-027   
     length 5.20607   
     axis 180 -30 -90   XYZ
    dof rx ry rz
    limits (-60.0 90.0)
           (-90.0 90.0)
           (-90.0 90.0)
  end
  begin
     id 19
     name lradius
     direction 1 -4.48956e-011 9.87925e-027   
     length 3.39961   
     axis 180 -30 -90   XYZ
    dof rx
    limits (-10.0 170.0)
  end
  begin
     id 20
     name lwrist
     direction 1 -4.48985e-011 1.73247e-026   
     length 1.6998   
     axis -9.60847e-015 90 90   XYZ
    dof ry
    limits (-180.0 0.0)
 end
  begin
     id 21 
     name lhand
     direction 1 -4.48798e-011 3.46119e-026   
     length 0.519693   
     axis -2.21073e-014 90 90   XYZ
    dof rx rz
    limits (-90.0 90.0)
           (-45.0 45.0)
  end
  begin
     id 22 
     name lfingers
     direction 1 -4.48938e-011 6.92797e-026   
     length 0.41899   
     axis -4.42155e-014 90 90   XYZ
    dof rx
    limits (0.0 90.0)
  end
  begin
     id 23
     name lthumb
     direction 0.707107 -6.34952e-011 0.707107   
     length 0.601588   
     axis -90 45 6.0103e-014   XYZ
    dof rx rz
    limits (-45.0 45.0)
           (-45.0 45.0)
  end
  begin
     id 24 
     name rclavicle
     direction -0.866736 0.456792 -0.200276   
     length 3.45032  
     axis 0 0 0   XYZ 
    dof ry rz
    limits (-10.0 20.0)
           (-20.0 0.0)
  end
  begin
     id 25 
     name rhumerus
     direction -1 -4.4897e-011 8.65094e-028  
     length 5.32214   
     axis 180 30 90   XYZ
    dof rx ry rz
    limits (-90.0 60.0)
           (-90.0 90.0)
           (-90.0 90.0)
  end
  begin
     id 26 
     name rradius
     direction -1 -4.48987e-011 1.08427e-026   
     length 3.51208   
     axis 180 30 90   XYZ
    dof rx
    limits (-10.0 170.0)
  end
  begin
     id 27 
     name rwrist
     direction -1 -4.48961e-011 1.73222e-026   
     length 1.75604   
     axis -9.60847e-015 -90 -90   XYZ
    dof ry
    limits (-180.0 0.0)
  end
  begin
     id 28
     name rhand
     direction -1 -4.48895e-011 3.46314e-026   
     length 0.586681   
     axis -2.21073e-014 -90 -90   XYZ
    dof rx rz
    limits (-90.0 90.0)
           (-45.0 45.0)
  end
  begin
     id 29
     name rfingers
     direction -1 -4.48968e-011 6.92916e-026   
     length 0.472997   
     axis -4.42155e-014 -90 -90   XYZ
    dof rx
    limits (0.0 90.0)
  end
  begin
     id 30
     name rthumb
     direction -0.707107 -6.34848e-011 0.707107   
     length 0.679133   
     axis -90 -45 -6.0103e-014   XYZ
    dof rx rz
    limits (-45.0 45.0)
           (-45.0 45.0)
  end
:hierarchy
  begin
    root lhipjoint rhipjoint lowerback
    lhipjoint lfemur
    lfemur ltibia
    ltibia lfoot
    lfoot ltoes
    rhipjoint rfemur
    rfemur rtibia
    rtibia rfoot
    rfoot rtoes
    lowerback upperback
    upperback thorax
    thorax lowerneck lclavicle rclavicle
    lowerneck upperneck
    upperneck head
    lclavicle lhumerus
    lhumerus lradius
    lradius lwrist
    lwrist lhand lthumb
    lhand lfingers
    rclavicle rhumerus
    rhumerus rradius
    rradius rwrist
    rwrist rhand rthumb
    rhand rfingers
  end

#!OML:ASF H:\Dans Jumps\Project 1\Capture day 1\Session 1\subject.ASF
:FULLY-SPECIFIED
:DEGREES
82
root 0.385318 17.4959 -13.814 8.33448 -1.13686 -2.48934
lowerback -1.05155 -0.446021 1.44158
upperback 3.4407 -0.713192 1.95369
thorax 4.14081 -0.3435 1.17346
lowerneck -14.5108 0.643471 -2.16952
upperneck 30.6467 1.41706 0.378497
head 12.5492 0.419457 0.730037
rclavicle 7.25564e-015 8.54774e-015
rhumerus -18.4077 -14.4126 -78.455
rradius 28.017
rwrist 27.7584
rhand -19.6887 -26.5215
rfingers 7.12502
rthumb 6.64036 -56.3974
lclavicle 7.25564e-015 8.54774e-015
lhumerus -19.3525 -2.24455 84.8764
lradius 25.6221
lwrist 8.78091
lhand -24.1095 -2.92769
lfingers 7.12502
lthumb 2.37157 27.0389
rfemur -16.015 -3.28201 21.2752
rtibia 22.5388
rfoot -14.7133 -2.42861
rtoes 2.21728
lfemur -15.7012 8.26921 -17.9753
ltibia 21.7473
lfoot -11.7918 6.80195
ltoes -8.44023
83
root 0.388129 17.4955 -13.8146 8.33542 -1.12561 -2.49975
lowerback -1.0312 -0.451198 1.44865
upperback 3.43691 -0.719965 1.96241
thorax 4.12545 -0.346847 1.17832
lowerneck -14.5195 0.649461 -2.15885
upperneck 30.6335 1.42579 0.369058
head 12.5457 0.423449 0.725829
rclavicle 1.00386e-014 -4.96962e-015
rhumerus -18.3685 -14.2454 -78.5015
rradius 28.1532
rwrist 27.5983
rhand -19.7158 -26.5921
rfingers 7.12502
rthumb 6.61418 -56.4688
lclavicle 1.00386e-014 -4.96962e-015
lhumerus -19.2962 -2.26596 84.7936
lradius 25.6718
lwrist 8.80101
lhand -24.1248 -2.95145
lfingers 7.12502
lthumb 2.35683 27.0153
rfemur -16.0165 -3.28618 21.2771
rtibia 22.5395
rfoot -14.7149 -2.43712
rtoes 2.21093
lfemur -15.7189 8.26995 -17.9754
ltibia 21.7718
lfoot -11.8043 6.79585
ltoes -8.43119
84
root 0.390845 17.4952 -13.8151 8.33796 -1.11634 -2.50805
lowerback -1.01476 -0.455913 1.45068
upperback 3.43465 -0.726111 1.97119
thorax 4.11394 -0.350038 1.18607
lowerneck -14.5295 0.654988 -2.14728
upperneck 30.6182 1.43367 0.359358
head 12.5416 0.427159 0.721235
rclavicle 8.05078e-015 1.59028e-015
rhumerus -18.3325 -14.071 -78.5494
rradius 28.296
rwrist 27.4319
rhand -19.7369 -26.6779
rfingers 7.12502
rthumb 6.59379 -56.5553
lclavicle 8.05078e-015 1.59028e-015
lhumerus -19.2382 -2.28583 84.713
lradius 25.7172
lwrist 8.82255
lhand -24.1267 -2.96026
lfingers 7.12502
lthumb 2.35496 27.0065
rfemur -16.0205 -3.29147 21.2776
rtibia 22.5415
rfoot -14.7168 -2.4462
rtoes 2.19047
lfemur -15.7371 8.27282 -17.978
ltibia 21.7933
lfoot -11.8144 6.78961
ltoes -8.43328
85
root 0.393479 17.4949 -13.8156 8.34167 -1.10744 -2.51183
lowerback -1.00149 -0.460536 1.44602
upperback 3.43274 -0.731998 1.97929
thorax 4.10466 -0.353301 1.19686
lowerneck -14.5363 0.659605 -2.13277
upperneck 30.6003 1.43992 0.347572
head 12.5358 0.430253 0.715049
rclavicle -4.37326e-015 -6.75868e-015
rhumerus -18.2978 -13.9041 -78.5964
rradius 28.4363
rwrist 27.2738
rhand -19.7528 -26.7639
rfingers 7.12502
rthumb 6.57848 -56.6417
lclavicle -4.37326e-015 -6.75868e-015
lhumerus -19.1812 -2.31056 84.6373
lradius 25.7357
lwrist 8.78321
lhand -24.1598 -2.99935
lfingers 7.12502
lthumb 2.32305 26.9677
rfemur -16.0276 -3.29781 21.2738
rtibia 22.5459
rfoot -14.7189 -2.45655
rtoes 2.16127
lfemur -15.7549 8.27689 -17.9857
ltibia 21.8109
lfoot -11.823 6.78259
ltoes -8.4464
86
root 0.39599 17.4946 -13.816 8.34518 -1.10243 -2.5159
lowerback -0.99191 -0.463759 1.43793
upperback 3.43364 -0.736138 1.98871
thorax 4.10045 -0.355817 1.211
lowerneck -14.5344 0.664377 -2.10654
upperneck 30.5696 1.44676 0.322889
head 12.5233 0.433453 0.701841
rclavicle 1.98785e-015 1.8487e-014
rhumerus -18.2612 -13.7449 -78.6408
rradius 28.5716
rwrist 27.1228
rhand -19.7809 -26.8266
rfingers 7.12502
rthumb 6.55132 -56.7053
lclavicle 1.98785e-015 1.8487e-014
lhumerus -19.1191 -2.33091 84.5651
lradius 25.7456
lwrist 8.75483
lhand -24.1845 -3.02856
lfingers 7.12502
lthumb 2.29916 26.9388
rfemur -16.0356 -3.30003 21.2706
rtibia 22.5525
rfoot -14.7225 -2.46749
rtoes 2.14391
lfemur -15.7706 8.28374 -17.9926
ltibia 21.8258
lfoot -11.8308 6.77533
ltoes -8.4617
87
root 0.39849 17.4942 -13.8163 8.34666 -1.09976 -2.51778
lowerback -0.982976 -0.466507 1.4258
upperback 3.43724 -0.73961 1.99814
thorax 4.09945 -0.358125 1.22744
lowerneck -14.5228 0.66889 -2.07183
upperneck 30.5262 1.4533 0.288997
head 12.5036 0.43647 0.683445
rclavicle -8.94531e-015 3.57812e-014
rhumerus -18.2235 -13.599 -78.6829
rradius 28.7007
rwrist 26.9849
rhand -19.8184 -26.8657
rfingers 7.12502
rthumb 6.51509 -56.7455
lclavicle -8.94531e-015 3.57812e-014
lhumerus -19.0519 -2.34156 84.4937
lradius 25.7421
lwrist 8.7031
lhand -24.1847 -3.01626
lfingers 7.12502
lthumb 2.29903 26.9511
rfemur -16.0422 -3.30211 21.2647
rtibia 22.5611
rfoot -14.7271 -2.47556
rtoes 2.13562
lfemur -15.7822 8.29194 -18.0015
ltibia 21.8391
lfoot -11.837 6.76887
ltoes -8.48753
88
root 0.400964 17.4939 -13.8166 8.34742 -1.10069 -2.51982
lowerback -0.973589 -0.46786 1.41239
upperback 3.44219 -0.741216 2.00781
thorax 4.0996 -0.359548 1.24493
lowerneck -14.5055 0.671467 -2.04121
upperneck 30.4775 1.45662 0.25931
head 12.4807 0.438218 0.666826
rclavicle -1.59028e-015 -2.0276e-014
rhumerus -18.187 -13.4634 -78.7215
rradius 28.8233
rwrist 26.8566
rhand -19.8664 -26.8717
rfingers 7.12502
rthumb 6.46876 -56.753
lclavicle -1.59028e-015 -2.0276e-014
lhumerus -18.9827 -2.35494 84.4268
lradius 25.716
lwrist 8.62783
lhand -24.2298 -3.10209
lfingers 7.12502
lthumb 2.25544 26.8657
rfemur -16.0494 -3.29942 21.2584
rtibia 22.5711
rfoot -14.7313 -2.48248
rtoes 2.13786
lfemur -15.7929 8.30099 -18.0098
ltibia 21.8537
lfoot -11.8438 6.76404
ltoes -8.50884
89
root 0.403446 17.4936 -13.817 8.34822 -1.10429 -2.5236
lowerback -0.963353 -0.467974 1.39959
upperback 3.44861 -0.741224 2.01802
thorax 4.10078 -0.360166 1.26272
lowerneck -14.4992 0.672633 -2.02206
upperneck 30.4384 1.45764 0.242016
head 12.4637 0.439099 0.656739
rclavicle 8.94531e-016 -3.97569e-015
rhumerus -18.1509 -13.3391 -78.7572
rradius 28.94
rwrist 26.7358
rhand -19.9245 -26.8524
rfingers 7.12502
rthumb 6.4127 -56.7353
lclavicle 8.94531e-016 -3.97569e-015
lhumerus -18.9095 -2.36099 84.3621
lradius 25.68
lwrist 8.56947
lhand -24.2772 -3.22325
lfingers 7.12502
lthumb 2.20961 26.7451
rfemur -16.058 -3.29253 21.2537
rtibia 22.583
rfoot -14.7347 -2.48903
rtoes 2.14535
lfemur -15.8045 8.31017 -18.016
ltibia 21.8713
lfoot -11.8511 6.76077
ltoes -8.52528
90
root 0.405988 17.4933 -13.8175 8.34857 -1.11434 -2.5303
lowerback -0.951208 -0.465878 1.38919
upperback 3.4562 -0.738339 2.02825
thorax 4.10203 -0.359267 1.27932
lowerneck -14.5036 0.672619 -2.02446
upperneck 30.4113 1.45578 0.249114
head 12.4535 0.439227 0.659414
rclavicle 5.86415e-015 -1.82882e-014
rhumerus -18.1159 -13.2254 -78.7915
rradius 29.0507
rwrist 26.6264
rhand -19.9759 -26.8267
rfingers 7.12502
rthumb 6.36308 -56.7111
lclavicle 5.86415e-015 -1.82882e-014
lhumerus -18.8399 -2.36396 84.3002
lradius 25.6354
lwrist 8.48776
lhand -24.3526 -3.37897
lfingers 7.12502
lthumb 2.13684 26.5901
rfemur -16.0687 -3.27843 21.2514
rtibia 22.5969
rfoot -14.7353 -2.49626
rtoes 2.13566
lfemur -15.8177 8.32103 -18.0192
ltibia 21.8949
lfoot -11.8599 6.76223
ltoes -8.53484
